<?xml version="1.0" encoding="UTF-8" standalone="no"?>
<!DOCTYPE svg PUBLIC "-//W3C//DTD SVG 1.1//EN" "http://www.w3.org/Graphics/SVG/1.1/DTD/svg11.dtd">
<svg version="1.1" xmlns="http://www.w3.org/2000/svg" xmlns:xlink="http://www.w3.org/1999/xlink" preserveAspectRatio="xMidYMid meet" viewBox="0 0 160 160" width="160" height="160"><defs><path d="M80 0C35.82 0 0 35.66 0 79.66C0 114.87 22.91 144.73 54.71 155.26C58.71 156 60.17 153.53 60.17 151.43C60.17 149.53 60.1 143.25 60.06 136.6C37.81 141.42 33.11 127.2 33.11 127.2C29.48 118 24.23 115.55 24.23 115.55C16.97 110.6 24.78 110.7 24.78 110.7C32.81 111.26 37.04 118.91 37.04 118.91C44.18 131.09 55.76 127.57 60.32 125.53C61.04 120.38 63.12 116.87 65.41 114.88C47.63 112.87 28.95 106.04 28.95 75.5C28.95 66.81 32.07 59.71 37.19 54.12C36.36 52.12 33.62 44.01 37.97 33.03C37.97 33.03 44.68 30.9 59.98 41.2C66.36 39.44 73.21 38.55 80 38.52C86.8 38.55 93.65 39.44 100.04 41.2C115.32 30.9 122.02 33.03 122.02 33.03C126.38 44.01 123.64 52.12 122.81 54.12C127.94 59.71 131.04 66.81 131.04 75.5C131.04 106.1 112.33 112.85 94.51 114.82C97.38 117.29 99.94 122.13 99.94 129.57C99.94 140.23 99.84 148.8 99.84 151.43C99.84 153.55 101.28 156.03 105.34 155.25C137.11 144.71 160 114.85 160 79.66C160 35.66 124.19 0 80 0" id="a39OD5wI7u"></path><path d="M80 0C35.82 0 0 35.66 0 79.66C0 114.87 22.91 144.73 54.71 155.26C58.71 156 60.17 153.53 60.17 151.43C60.17 149.53 60.1 143.25 60.06 136.6C37.81 141.42 33.11 127.2 33.11 127.2C29.48 118 24.23 115.55 24.23 115.55C16.97 110.6 24.78 110.7 24.78 110.7C32.81 111.26 37.04 118.91 37.04 118.91C44.18 131.09 55.76 127.57 60.32 125.53C61.04 120.38 63.12 116.87 65.41 114.88C47.63 112.87 28.95 106.04 28.95 75.5C28.95 66.81 32.07 59.71 37.19 54.12C36.36 52.12 33.62 44.01 37.97 33.03C37.97 33.03 44.68 30.9 59.98 41.2C66.36 39.44 73.21 38.55 80 38.52C86.8 38.55 93.65 39.44 100.04 41.2C115.32 30.9 122.02 33.03 122.02 33.03C126.38 44.01 123.64 52.12 122.81 54.12C127.94 59.71 131.04 66.81 131.04 75.5C131.04 106.1 112.33 112.85 94.51 114.82C97.38 117.29 99.94 122.13 99.94 129.57C99.94 140.23 99.84 148.8 99.84 151.43C99.84 153.55 101.28 156.03 105.34 155.25C137.11 144.71 160 114.85 160 79.66C160 35.66 124.19 0 80 0" id="a3iTiJ00cB"></path><path d="M30.3 114.39C30.12 114.79 29.5 114.9 28.92 114.63C28.34 114.37 28.02 113.83 28.2 113.44C28.38 113.03 29.01 112.91 29.58 113.18C30.16 113.45 30.5 113.99 30.3 114.39C30.3 114.39 30.3 114.39 30.3 114.39" id="a10rbpPnVq"></path><path d="M30.3 114.39C30.12 114.79 29.5 114.9 28.92 114.63C28.34 114.37 28.02 113.83 28.2 113.44C28.38 113.03 29.01 112.91 29.58 113.18C30.16 113.45 30.5 113.99 30.3 114.39C30.3 114.39 30.3 114.39 30.3 114.39" id="b2pnK3nI4z"></path><path d="M33.53 117.99C33.15 118.33 32.41 118.18 31.9 117.62C31.38 117.06 31.29 116.32 31.67 115.96C32.06 115.61 32.78 115.78 33.31 116.33C33.83 116.89 33.94 117.63 33.53 117.99C33.53 117.99 33.53 117.99 33.53 117.99" id="a1lpelVci"></path><path d="M33.53 117.99C33.15 118.33 32.41 118.18 31.9 117.62C31.38 117.06 31.29 116.32 31.67 115.96C32.06 115.61 32.78 115.78 33.31 116.33C33.83 116.89 33.94 117.63 33.53 117.99C33.53 117.99 33.53 117.99 33.53 117.99" id="h1E9a8UOYc"></path><path d="M36.69 122.58C36.21 122.91 35.4 122.6 34.9 121.89C34.41 121.17 34.41 120.33 34.91 119.99C35.41 119.64 36.21 119.96 36.7 120.66C37.19 121.37 37.19 122.23 36.69 122.58C36.69 122.58 36.69 122.58 36.69 122.58" id="abQKQHfGR"></path><path d="M36.69 122.58C36.21 122.91 35.4 122.6 34.9 121.89C34.41 121.17 34.41 120.33 34.91 119.99C35.41 119.64 36.21 119.96 36.7 120.66C37.19 121.37 37.19 122.23 36.69 122.58C36.69 122.58 36.69 122.58 36.69 122.58" id="i1AAz49fhj"></path><path d="M41.02 127.01C40.57 127.48 39.64 127.36 38.96 126.7C38.26 126.06 38.06 125.15 38.51 124.67C38.95 124.18 39.88 124.32 40.57 124.97C41.27 125.62 41.48 126.53 41.02 127.01C41.02 127.01 41.02 127.01 41.02 127.01" id="fSiKABVc9"></path><path d="M41.02 127.01C40.57 127.48 39.64 127.36 38.96 126.7C38.26 126.06 38.06 125.15 38.51 124.67C38.95 124.18 39.88 124.32 40.57 124.97C41.27 125.62 41.48 126.53 41.02 127.01C41.02 127.01 41.02 127.01 41.02 127.01" id="axN7pUWke"></path><path d="M46.97 129.58C46.78 130.21 45.88 130.49 44.98 130.22C44.07 129.95 43.48 129.22 43.67 128.59C43.85 127.96 44.76 127.66 45.67 127.95C46.57 128.22 47.16 128.94 46.97 129.58C46.97 129.58 46.97 129.58 46.97 129.58" id="erCLJkKd6"></path><path d="M46.97 129.58C46.78 130.21 45.88 130.49 44.98 130.22C44.07 129.95 43.48 129.22 43.67 128.59C43.85 127.96 44.76 127.66 45.67 127.95C46.57 128.22 47.16 128.94 46.97 129.58C46.97 129.58 46.97 129.58 46.97 129.58" id="ar8nXW0wk"></path><path d="M53.52 130.06C53.55 130.71 52.78 131.26 51.83 131.27C50.87 131.29 50.1 130.76 50.09 130.11C50.09 129.45 50.83 128.91 51.8 128.9C52.74 128.88 53.52 129.41 53.52 130.06C53.52 130.06 53.52 130.06 53.52 130.06" id="b1O6ukyNK"></path><path d="M53.52 130.06C53.55 130.71 52.78 131.26 51.83 131.27C50.87 131.29 50.1 130.76 50.09 130.11C50.09 129.45 50.83 128.91 51.8 128.9C52.74 128.88 53.52 129.41 53.52 130.06C53.52 130.06 53.52 130.06 53.52 130.06" id="aT30i7BL"></path><path d="M59.62 129.03C59.74 129.67 59.07 130.32 58.12 130.5C57.19 130.67 56.33 130.27 56.22 129.64C56.1 128.98 56.78 128.32 57.7 128.15C58.65 127.99 59.49 128.37 59.62 129.03C59.62 129.03 59.62 129.03 59.62 129.03" id="amCk6NC9E"></path><path d="M59.62 129.03C59.74 129.67 59.07 130.32 58.12 130.5C57.19 130.67 56.33 130.27 56.22 129.64C56.1 128.98 56.78 128.32 57.7 128.15C58.65 127.99 59.49 128.37 59.62 129.03C59.62 129.03 59.62 129.03 59.62 129.03" id="dL1Jxd0b3"></path></defs><g><g><g><use xlink:href="#a39OD5wI7u" opacity="1" fill="#1b1817" fill-opacity="1"></use><g><use xlink:href="#a39OD5wI7u" opacity="1" fill-opacity="0" stroke="#000000" stroke-width="1" stroke-opacity="0"></use></g></g><g><use xlink:href="#a3iTiJ00cB" opacity="1" fill="#000000" fill-opacity="0"></use><g><use xlink:href="#a3iTiJ00cB" opacity="1" fill-opacity="0" stroke="#000000" stroke-width="1" stroke-opacity="0"></use></g></g><g><use xlink:href="#a10rbpPnVq" opacity="1" fill="#1b1817" fill-opacity="1"></use><g><use xlink:href="#a10rbpPnVq" opacity="1" fill-opacity="0" stroke="#000000" stroke-width="1" stroke-opacity="0"></use></g></g><g><use xlink:href="#b2pnK3nI4z" opacity="1" fill="#000000" fill-opacity="0"></use><g><use xlink:href="#b2pnK3nI4z" opacity="1" fill-opacity="0" stroke="#000000" stroke-width="1" stroke-opacity="0"></use></g></g><g><use xlink:href="#a1lpelVci" opacity="1" fill="#1b1817" fill-opacity="1"></use><g><use xlink:href="#a1lpelVci" opacity="1" fill-opacity="0" stroke="#000000" stroke-width="1" stroke-opacity="0"></use></g></g><g><use xlink:href="#h1E9a8UOYc" opacity="1" fill="#000000" fill-opacity="0"></use><g><use xlink:href="#h1E9a8UOYc" opacity="1" fill-opacity="0" stroke="#000000" stroke-width="1" stroke-opacity="0"></use></g></g><g><use xlink:href="#abQKQHfGR" opacity="1" fill="#1b1817" fill-opacity="1"></use><g><use xlink:href="#abQKQHfGR" opacity="1" fill-opacity="0" stroke="#000000" stroke-width="1" stroke-opacity="0"></use></g></g><g><use xlink:href="#i1AAz49fhj" opacity="1" fill="#000000" fill-opacity="0"></use><g><use xlink:href="#i1AAz49fhj" opacity="1" fill-opacity="0" stroke="#000000" stroke-width="1" stroke-opacity="0"></use></g></g><g><use xlink:href="#fSiKABVc9" opacity="1" fill="#1b1817" fill-opacity="1"></use><g><use xlink:href="#fSiKABVc9" opacity="1" fill-opacity="0" stroke="#000000" stroke-width="1" stroke-opacity="0"></use></g></g><g><use xlink:href="#axN7pUWke" opacity="1" fill="#000000" fill-opacity="0"></use><g><use xlink:href="#axN7pUWke" opacity="1" fill-opacity="0" stroke="#000000" stroke-width="1" stroke-opacity="0"></use></g></g><g><use xlink:href="#erCLJkKd6" opacity="1" fill="#1b1817" fill-opacity="1"></use><g><use xlink:href="#erCLJkKd6" opacity="1" fill-opacity="0" stroke="#000000" stroke-width="1" stroke-opacity="0"></use></g></g><g><use xlink:href="#ar8nXW0wk" opacity="1" fill="#000000" fill-opacity="0"></use><g><use xlink:href="#ar8nXW0wk" opacity="1" fill-opacity="0" stroke="#000000" stroke-width="1" stroke-opacity="0"></use></g></g><g><use xlink:href="#b1O6ukyNK" opacity="1" fill="#1b1817" fill-opacity="1"></use><g><use xlink:href="#b1O6ukyNK" opacity="1" fill-opacity="0" stroke="#000000" stroke-width="1" stroke-opacity="0"></use></g></g><g><use xlink:href="#aT30i7BL" opacity="1" fill="#000000" fill-opacity="0"></use><g><use xlink:href="#aT30i7BL" opacity="1" fill-opacity="0" stroke="#000000" stroke-width="1" stroke-opacity="0"></use></g></g><g><use xlink:href="#amCk6NC9E" opacity="1" fill="#1b1817" fill-opacity="1"></use><g><use xlink:href="#amCk6NC9E" opacity="1" fill-opacity="0" stroke="#000000" stroke-width="1" stroke-opacity="0"></use></g></g><g><use xlink:href="#dL1Jxd0b3" opacity="1" fill="#000000" fill-opacity="0"></use><g><use xlink:href="#dL1Jxd0b3" opacity="1" fill-opacity="0" stroke="#000000" stroke-width="1" stroke-opacity="0"></use></g></g></g></g></svg>