<?xml version="1.0" encoding="UTF-8" standalone="no"?>
<!DOCTYPE svg PUBLIC "-//W3C//DTD SVG 1.1//EN" "http://www.w3.org/Graphics/SVG/1.1/DTD/svg11.dtd">
<svg version="1.1" xmlns="http://www.w3.org/2000/svg" xmlns:xlink="http://www.w3.org/1999/xlink" preserveAspectRatio="xMidYMid meet" viewBox="0 0 160 160" width="160" height="160"><defs><path d="M125.5 159.06C125.35 159.68 124.72 160 123.63 160C121.54 160 104.79 160 102.7 160C101.46 160 100.36 159.45 99.42 158.35C97.12 155.42 85.61 140.78 64.9 114.42L55.25 123.58C55.25 144.02 55.25 155.38 55.25 157.65C55.25 159.22 54.47 160 52.9 160C51.28 160 38.32 160 36.7 160C35.12 160 34.34 159.22 34.34 157.65C34.34 142.12 34.34 17.88 34.34 2.35C34.34 0.8 35.12 0 36.7 0C38.32 0 51.28 0 52.9 0C54.47 0 55.25 0.8 55.25 2.35C55.25 8.72 55.25 40.6 55.25 97.97C80.06 72.88 93.84 58.94 96.6 56.15C97.7 55.05 98.8 54.51 99.9 54.51C102.06 54.51 119.34 54.51 121.5 54.51C122.45 54.51 123.07 54.91 123.4 55.71C123.7 56.71 123.63 57.41 123.16 57.81C120.25 60.63 105.68 74.73 79.46 100.11C106.8 134.13 121.99 153.03 125.03 156.81C125.66 157.51 125.81 158.21 125.5 159.21" id="e41Nbshp4m"></path></defs><g><g><g><use xlink:href="#e41Nbshp4m" opacity="1" fill="#000000" fill-opacity="1"></use><g><use xlink:href="#e41Nbshp4m" opacity="1" fill-opacity="0" stroke="#000000" stroke-width="1" stroke-opacity="0"></use></g></g></g></g></svg>