<?xml version="1.0" encoding="UTF-8" standalone="no"?>
<!DOCTYPE svg PUBLIC "-//W3C//DTD SVG 1.1//EN" "http://www.w3.org/Graphics/SVG/1.1/DTD/svg11.dtd">
<svg version="1.1" xmlns="http://www.w3.org/2000/svg" xmlns:xlink="http://www.w3.org/1999/xlink" preserveAspectRatio="xMidYMid meet" viewBox="0 0 160 160" width="160" height="160"><defs><path d="M129.4 0.11L130.75 0.25L132.07 0.44L133.39 0.68L134.68 0.97L135.95 1.31L137.2 1.7L138.43 2.14L139.64 2.62L140.83 3.15L141.99 3.72L143.12 4.34L144.23 4.99L145.31 5.69L146.35 6.43L147.37 7.21L148.36 8.02L149.32 8.88L150.24 9.76L151.13 10.69L151.98 11.64L152.79 12.63L153.57 13.65L154.31 14.7L155.01 15.78L155.66 16.88L156.28 18.02L156.85 19.18L157.38 20.36L157.86 21.57L158.3 22.8L158.69 24.05L159.03 25.32L159.32 26.62L159.56 27.93L159.75 29.26L159.89 30.6L159.97 31.96L160 33.33L160 126.67L159.97 128.04L159.89 129.4L159.75 130.74L159.56 132.07L159.32 133.38L159.03 134.68L158.69 135.95L158.3 137.2L157.86 138.43L157.38 139.64L156.85 140.82L156.28 141.98L155.66 143.12L155.01 144.22L154.31 145.3L153.57 146.35L152.79 147.37L151.98 148.36L151.13 149.31L150.24 150.24L149.32 151.12L148.36 151.98L147.37 152.79L146.35 153.57L145.31 154.31L144.23 155.01L143.12 155.66L141.99 156.28L140.83 156.85L139.64 157.38L138.43 157.86L137.2 158.3L135.95 158.69L134.68 159.03L133.39 159.32L132.07 159.56L130.75 159.75L129.4 159.89L128.04 159.97L126.67 160L33.33 160L31.96 159.97L30.6 159.89L29.26 159.75L27.93 159.56L26.62 159.32L25.32 159.03L24.05 158.69L22.8 158.3L21.57 157.86L20.36 157.38L19.18 156.85L18.02 156.28L16.88 155.66L15.78 155.01L14.7 154.31L13.65 153.57L12.63 152.79L11.64 151.98L10.69 151.12L9.76 150.24L8.88 149.31L8.02 148.36L7.21 147.37L6.43 146.35L5.69 145.3L4.99 144.22L4.34 143.12L3.72 141.98L3.15 140.82L2.62 139.64L2.14 138.43L1.7 137.2L1.31 135.95L0.97 134.68L0.68 133.38L0.44 132.07L0.25 130.74L0.11 129.4L0.03 128.04L0 126.67L0 33.33L0.03 31.96L0.11 30.6L0.25 29.26L0.44 27.93L0.68 26.62L0.97 25.32L1.31 24.05L1.7 22.8L2.14 21.57L2.62 20.36L3.15 19.18L3.72 18.02L4.34 16.88L4.99 15.78L5.69 14.7L6.43 13.65L7.21 12.63L8.02 11.64L8.88 10.69L9.76 9.76L10.69 8.88L11.64 8.02L12.63 7.21L13.65 6.43L14.7 5.69L15.78 4.99L16.88 4.34L18.02 3.72L19.18 3.15L20.36 2.62L21.57 2.14L22.8 1.7L24.05 1.31L25.32 0.97L26.62 0.68L27.93 0.44L29.26 0.25L30.6 0.11L31.96 0.03L33.33 0L126.67 0L128.04 0.03L129.4 0.11ZM105.52 53.51L103.94 53.74L102.38 54.05L100.85 54.44L99.35 54.92L97.88 55.48L96.46 56.12L95.09 56.83L93.78 57.62L92.53 58.49L91.34 59.42L90.23 60.43L89.21 61.5L88.26 62.64L87.42 63.84L86.67 65.1L86.67 53.33L66.67 53.33L66.67 126.67L86.67 126.67L86.67 89.31L86.72 87.79L86.86 86.34L87.09 84.96L87.41 83.66L87.81 82.43L88.29 81.27L88.83 80.19L89.44 79.18L90.11 78.25L90.83 77.39L91.61 76.61L92.43 75.91L93.29 75.28L94.18 74.74L95.1 74.27L96.05 73.87L97.02 73.56L98.01 73.33L99 73.18L100 73.1L101 73.11L101.99 73.2L102.98 73.38L103.95 73.63L104.9 73.97L105.82 74.39L106.71 74.89L107.57 75.48L108.39 76.16L109.17 76.92L109.89 77.76L110.56 78.69L111.17 79.71L111.71 80.82L112.19 82.01L112.59 83.29L112.91 84.66L113.14 86.12L113.28 87.67L113.33 89.31L113.33 126.67L133.33 126.67L133.33 81.61L133.26 79.05L133.06 76.62L132.73 74.33L132.28 72.17L131.71 70.14L131.03 68.23L130.25 66.45L129.37 64.79L128.4 63.25L127.35 61.83L126.22 60.53L125.01 59.34L123.74 58.26L122.41 57.3L121.02 56.45L119.59 55.7L118.11 55.06L116.6 54.53L115.06 54.09L113.49 53.76L111.91 53.52L110.31 53.38L108.71 53.33L107.11 53.38L105.52 53.51ZM33.33 126.67L53.33 126.67L53.33 53.33L33.33 53.33L33.33 126.67ZM40.66 21.67L39.4 22.05L38.2 22.56L37.08 23.19L36.04 23.94L35.09 24.8L34.23 25.77L33.48 26.82L32.85 27.95L32.35 29.15L31.97 30.42L31.75 31.75L31.67 33.12L31.75 34.49L31.97 35.82L32.35 37.09L32.85 38.29L33.48 39.42L34.23 40.47L35.09 41.43L36.04 42.3L37.08 43.05L38.2 43.68L39.4 44.19L40.66 44.57L41.97 44.8L43.33 44.88L44.69 44.8L46.01 44.57L47.27 44.19L48.47 43.68L49.59 43.05L50.63 42.3L51.58 41.43L52.44 40.47L53.18 39.42L53.81 38.29L54.32 37.09L54.69 35.82L54.92 34.49L55 33.12L54.92 31.75L54.69 30.42L54.32 29.15L53.81 27.95L53.18 26.82L52.44 25.77L51.58 24.8L50.63 23.94L49.59 23.19L48.46 22.56L47.27 22.05L46.01 21.67L44.69 21.44L43.33 21.36L41.97 21.44L40.66 21.67Z" id="a45zLb4BWC"></path></defs><g><g><g><use xlink:href="#a45zLb4BWC" opacity="1" fill="#FFFFFF" fill-opacity="1"></use></g></g></g></svg>